<svg viewBox="0 0 1000 1000" xmlns="http://www.w3.org/2000/svg"><path d="M548.8 10.8c95.58 7.87 159.1 44.91 195 113.2l9.98 19.38-2.11 20.15c-7.1 62.38-39.35 130.7-93.08 196.9-9.02 11.32-16.51 20.92-16.51 21.5s3.84 6.14 8.44 12.48c4.61 6.33 8.83 12.48 9.21 13.63.38 1.34 58.73-30.13 139-75.04 75.82-42.43 138.6-77.55 139.2-77.94 2.11-1.15 29.56 54.32 37.23 74.85 11.71 31.86 15.16 49.9 14.97 81.76 0 22.07-.96 30.9-4.03 42.61-6.14 22.65-14.78 41.65-27.83 61.42-10.94 16.31-12.86 18.42-24.37 23.99-59.31 29.56-150.9 37.04-250.8 20.73l-7.87-1.34-6.91 14.78c-3.84 8.25-6.91 15.54-6.91 16.12 0 .77 62.18 36.66 138.2 79.84 76 43.18 138.2 79.07 138.2 79.84 0 2.88-33.01 50.67-45.1 64.87-49.9 59.88-110.2 88.09-179.4 83.87l-20.15-1.15-16.31-10.94c-20.92-14.39-51.24-44.33-69.29-68.71-24.76-33.39-49.71-79.46-65.25-120.5-5.57-14.97-6.72-16.89-10.36-15.93-2.3.58-10.36 1.73-17.85 2.3l-13.82 1.34v306.5h-9.21c-20.54 0-62.18-4.22-84.26-8.64-71.2-14.39-120-48.94-150.1-106.7l-10.17-19.19 2.11-19.58c2.3-21.31 8.83-47.98 16.89-69.48 13.82-37.23 44.33-88.29 76.58-128.4 11.71-14.58 16.31-21.49 14.97-23.22-.96-1.54-5.18-7.68-9.21-13.82-4.22-6.14-7.68-11.32-8.06-11.71-.19-.38-62.19 33.97-138 76.39-75.62 42.42-138.8 76.58-140.1 76-4.41-1.73-32.63-61.03-39.92-83.68-10.17-32.24-11.71-42.22-11.52-71.97 0-20.92.96-30.13 4.03-41.65 6.14-22.46 14.78-41.65 27.83-61.42 10.94-16.5 12.86-18.23 24.38-23.99 27.45-13.43 65.83-23.41 107.5-27.64 27.64-2.88 84.64-1.34 117.1 3.26 37.04 5.18 33.78 6.14 41.65-11.32 3.84-8.06 6.52-15.16 6.14-15.55-.38-.58-62.57-35.89-138-78.88s-137.6-78.5-138-78.88c-1.15-1.15 16.89-28.98 31.67-48.94 53.74-71.97 115.2-104.6 190.8-100.8l22.07 1.15 15.74 10.75c52.4 35.51 101.5 103.4 133.2 184.6 7.29 18.81 9.02 21.5 12.28 20.73 2.11-.58 10.17-1.54 17.66-2.3l14.01-1.34V8.59l14.78.19c8.23.2 23.59.97 33.95 1.93zm-71.2 399.8c-15.54 4.22-27.25 10.75-39.92 22.65-30.51 28.4-38.19 70.63-19.96 108.4 2.49 4.99 10.56 15.36 18.04 22.84 20.35 20.54 41.84 28.98 69.67 27.25 65.64-4.22 105.6-71.97 77.54-131.8-6.33-13.63-28.6-36.08-41.65-42.42-19.96-9.4-44.53-12.09-63.72-6.91z"/></svg>