<?xml version="1.0" encoding="UTF-8"?>
<svg version="1.1" viewBox="0 0 265 220.3" xmlns="http://www.w3.org/2000/svg" xmlns:xlink="http://www.w3.org/1999/xlink">
 <defs>
  <style>text {
        stroke: #000;
        stroke-opacity: .8;
        font-family:Segoe UI;
        font-size:28pt;
        font-weight: bolder;
      }</style>
  <linearGradient id="base">
   <stop stop-color="#dadada" offset="0"/>
   <stop stop-color="#212121" offset="1"/>
  </linearGradient>
  <radialGradient id="outer-border-outer-fill" cx="51.25" cy="51.25" r="97.5" gradientTransform="translate(0 20.28)" gradientUnits="userSpaceOnUse" xlink:href="#base"/>
  <radialGradient id="outer-border-inner-fill" cx="153.8" cy="153.8" r="124.8" gradientTransform="translate(0 20.28)" gradientUnits="userSpaceOnUse" xlink:href="#base"/>
  <radialGradient id="outer-border-fill" cx="67.7" cy="67.7" r="123.5" gradientTransform="translate(0 20.28)" gradientUnits="userSpaceOnUse" xlink:href="#base"/>
  <filter id="knob-shadow-filter" color-interpolation-filters="sRGB">
   <feGaussianBlur stdDeviation="1"/>
  </filter>
  <radialGradient id="radialGradient853" cx="35" cy="35" r="130" gradientTransform="translate(0 20.28)" gradientUnits="userSpaceOnUse" xlink:href="#base"/>
 </defs>
 <circle cx="100" cy="120.3" r="100" fill="url(#radialGradient853)"/>
 <circle cx="100" cy="120.3" r="96" fill="url(#outer-border-inner-fill)"/>
 <circle cx="100" cy="120.3" r="95" fill="url(#outer-border-fill)"/>
 <circle cx="100" cy="120.3" r="75" fill="url(#outer-border-outer-fill)"/>
 <circle cx="100" cy="120.3" r="70" fill="#1c1c1c" stroke="#000" stroke-width="3"/>
 <path d="m51 170.3a70.02 70.02 0 1 1 99-99" fill="none" stroke="#fff" stroke-linecap="round" stroke-opacity=".1" stroke-width="1.44"/>
 <path d="m51 168.3a68.59 68.59 0 1 0 97-97" fill="none" stroke="#b2b2b2" stroke-linecap="round" stroke-opacity=".07" stroke-width="1.44"/>
 <g transform="rotate(90 12.03 122.6)">
  <path id="knob-shadow" d="m-15 81 6 7 30 7 23-7v-102.5l-8-7z" fill="#050505" fill-opacity=".75" filter="url(#knob-shadow-filter)"/>
  <g stroke-width="4">
   <path id="knob-left" d="m9-26v111s-11 0-22-5.5c9-48 9-48 0-99 0 0 11-5.5 22-6.5z" fill="#5a5a5a" stroke="#5a5a5a"/>
   <path id="knob-right" d="m13-26v111s11 0 22-5.5c-9-48-9-48 0-99 0 0-11-5.5-22-6.5z" fill="#262626" stroke="#262626"/>
   <path id="arrow-shaft" d="m11-26v111" stroke="#414141" stroke-linecap="round"/>
  </g>
  <path id="arrow-head" d="m0 0c11-38 11-38 22 0-11-10-11-10-22 0" fill="#fff" fill-opacity=".65"/>
 </g>
 <text x="75" y="16.277344" fill="#c6c6c6" >OFF</text>
 <text x="206" y="128.02734" fill="#09ff00">ON</text>
</svg>
